<?xml version="1.0"?>
<svg xmlns="http://www.w3.org/2000/svg" xmlns:xlink="http://www.w3.org/1999/xlink" xmlns:svgjs="http://svgjs.com/svgjs" version="1.1" width="512" height="512" x="0" y="0" viewBox="0 0 512 512" style="enable-background:new 0 0 512 512" xml:space="preserve" class=""><g><g xmlns="http://www.w3.org/2000/svg"><g><path d="m501.5 306.12h-6.54v-14.974c.001-.039.001-.077.001-.116v-40c0-.039-.001-.077-.001-.116v-3.884c0-15.462-11.587-28.426-26.952-30.153-.062-.007-.125-.013-.187-.019l-47.271-4.119c-4.124-.365-7.763 2.693-8.123 6.821-.359 4.126 2.694 7.763 6.821 8.123l47.167 4.11c6.535.771 11.704 5.564 13.143 11.737h-22.156c-12.925 0-23.441 10.516-23.441 23.441v8.119c0 12.925 10.516 23.44 23.441 23.44h22.558v7.59h-38.258c-19.725-21.18-55.685-21.173-75.403 0h-167.08l-18.517-32.293c-5.754-10.035-8.831-21.455-8.896-33.022l-.118-20.684h160.776l54.917 4.786c.221.02.441.029.66.029 3.847 0 7.123-2.944 7.463-6.85.359-4.126-2.694-7.763-6.821-8.123l-51.229-4.464-37.021-68.217c-6.748-12.436-19.73-20.161-33.879-20.161h-56.322c-9.931.344-9.923 14.659 0 15h56.322c8.298 0 15.938 4.35 20.183 11.419h-128.79c-4.975 0-9.244 3.551-10.149 8.444l-9.829 53.137h-18.282l15.413-63.283c1.394-5.721 6.479-9.717 12.367-9.717h27.38c9.931-.344 9.923-14.659 0-15h-27.38c-12.827 0-23.905 8.704-26.941 21.167l-16.382 67.263-40.412 3.043v-5.077c0-14.046-11.427-25.473-25.474-25.473h-11.258c-6.765 0-12.269 5.504-12.269 12.269l-.001 115.807h-4.23c-5.79 0-10.5 4.71-10.5 10.5v24c0 5.79 4.71 10.5 10.5 10.5h38.349c10.804 58.366 92.843 58.324 103.624 0h127.45c9.931-.344 9.923-14.659 0-15h-127.162c-.655-5.281-2.097-10.322-4.206-15h46.235c.061.002.121.002.182 0h161.135c-2.108 4.678-3.551 9.719-4.206 15h-35.516c-9.931.344-9.923 14.659 0 15h35.803c10.804 58.366 92.843 58.324 103.624 0h45.688c5.79 0 10.5-4.71 10.5-10.5v-24c0-5.789-4.71-10.5-10.5-10.5zm-44.098-22.589c-4.654 0-8.441-3.786-8.441-8.44v-8.119c0-4.654 3.787-8.441 8.441-8.441h22.558v25zm-295.563-124.992h133.064l25.279 46.581h-166.959zm-132.108 34.505h8.526c5.775 0 10.474 4.698 10.474 10.473v19.026c0 10.585-8.478 19.228-19 19.494zm-14.731 128.076h37.767c-2.108 4.678-3.551 9.719-4.206 15h-33.561zm85.661 59c-20.678 0-37.5-16.822-37.5-37.5 2.06-49.749 72.948-49.734 75 0 0 20.678-16.822 37.5-37.5 37.5zm0-90c-14.779 0-28.152 6.139-37.702 16h-33.229v-49.08c18.429-.263 33.408-15.048 33.983-33.402l46.709-3.518h46.264l.118 20.769c.081 14.152 3.844 28.122 10.884 40.399l14.238 24.832h-43.564c-9.549-9.861-22.922-16-37.701-16zm303.339 90c-20.678 0-37.5-16.822-37.5-37.5 2.06-49.749 72.948-49.734 75 0 0 20.678-16.822 37.5-37.5 37.5zm93-44h-40.901c-.655-5.281-2.097-10.322-4.206-15h45.107z" fill="#edd522" data-original="#000000" style=""/><path d="m404 319.12c-12.958 0-23.5 10.542-23.5 23.5 1.291 31.176 45.714 31.167 47 0 0-12.958-10.542-23.5-23.5-23.5zm0 32c-4.687 0-8.5-3.813-8.5-8.5.427-11.261 16.575-11.258 17 0 0 4.687-3.813 8.5-8.5 8.5z" fill="#edd522" data-original="#000000" style=""/><path d="m100.661 319.12c-12.958 0-23.5 10.542-23.5 23.5 1.291 31.176 45.714 31.167 47 0 0-12.958-10.542-23.5-23.5-23.5zm0 32c-4.687 0-8.5-3.813-8.5-8.5.427-11.261 16.575-11.258 17 0 0 4.687-3.813 8.5-8.5 8.5z" fill="#edd522" data-original="#000000" style=""/><path d="m197.984 239.428c-9.931.344-9.923 14.659 0 15h14.769c9.931-.344 9.923-14.659 0-15z" fill="#edd522" data-original="#000000" style=""/></g></g></g></svg>
